<?xml version="1.0" standalone="no"?>
<!DOCTYPE svg PUBLIC "-//W3C//DTD SVG 20010904//EN"
 "http://www.w3.org/TR/2001/REC-SVG-20010904/DTD/svg10.dtd">
<svg version="1.0" xmlns="http://www.w3.org/2000/svg"
 width="600.000000pt" height="260.000000pt" viewBox="0 0 600.000000 260.000000"
 preserveAspectRatio="xMidYMid meet">
<g transform="translate(0.000000,260.000000) scale(0.100000,-0.100000)"
fill="#000000" stroke="none">
<path d="M414 2410 l-111 -110 -110 0 -111 0 -6 -44 c-8 -49 -7 -224 1 -303
l5 -53 147 0 147 0 59 60 c33 33 63 60 67 60 5 0 7 -345 6 -767 l-3 -768 -117
-3 -118 -3 0 -194 0 -195 435 0 435 0 0 195 0 195 -125 0 -125 0 -2 1018 -3
1017 -180 3 -180 2 -111 -110z"/>
<path d="M1447 2513 c-4 -3 -7 -102 -7 -220 l0 -213 225 0 225 0 0 220 0 220
-218 0 c-120 0 -222 -3 -225 -7z"/>
<path d="M4367 2312 l-207 -207 0 -805 0 -805 203 -203 202 -202 475 0 475 0
203 203 202 202 0 805 0 805 -207 207 -208 208 -465 0 -465 0 -208 -208z m989
-217 c12 -19 -3 -49 -178 -345 -105 -179 -249 -422 -321 -540 -71 -118 -169
-280 -216 -359 l-86 -144 -3 604 -2 604 102 102 103 103 294 -2 c282 -3 294
-4 307 -23z m174 -826 l0 -590 -98 -100 -97 -99 -308 0 c-169 0 -307 4 -307 8
0 5 73 132 162 283 88 151 218 371 287 489 192 326 356 600 358 600 2 0 3
-266 3 -591z"/>
<path d="M2367 1882 l-197 -197 0 -600 0 -600 199 -197 200 -198 478 0 478 0
198 198 197 197 0 600 0 600 -198 198 -197 197 -480 0 -480 0 -198 -198z
m1075 -299 l98 -98 0 -404 0 -405 -98 -98 -98 -98 -296 0 -295 0 -94 95 c-52
53 -97 106 -101 118 -3 12 -6 194 -7 405 l-1 383 97 100 96 99 301 0 301 0 97
-97z"/>
<path d="M1352 1653 l3 -158 78 -3 77 -3 0 -699 0 -700 190 0 190 0 0 860 0
860 -270 0 -271 0 3 -157z"/>
</g>
</svg>
