<?xml version="1.0" standalone="no"?>
<!DOCTYPE svg PUBLIC "-//W3C//DTD SVG 20010904//EN"
 "http://www.w3.org/TR/2001/REC-SVG-20010904/DTD/svg10.dtd">
<svg version="1.0" xmlns="http://www.w3.org/2000/svg"
 width="553.000000pt" height="286.000000pt" viewBox="0 0 553.000000 286.000000"
 preserveAspectRatio="xMidYMid meet">
<g transform="translate(0.000000,286.000000) scale(0.100000,-0.100000)"
fill="#000000" stroke="none">
<path d="M4541 2806 c-334 -64 -582 -292 -674 -621 -22 -79 -22 -87 -22 -760
0 -680 0 -680 23 -765 48 -176 139 -324 266 -431 103 -87 300 -179 385 -179
21 0 21 5 21 229 l0 229 -47 23 c-62 30 -142 110 -173 174 l-25 50 -3 644 c-2
627 -2 646 18 706 39 118 161 220 292 244 163 30 342 -68 416 -226 l27 -58 0
-640 0 -640 -32 -67 c-36 -77 -107 -153 -170 -183 l-42 -20 -3 -230 c-2 -126
-2 -233 0 -237 4 -10 140 30 209 62 202 93 365 277 437 490 42 127 48 241 44
910 l-4 615 -27 90 c-74 237 -219 411 -431 515 -152 76 -334 104 -485 76z"/>
<path d="M579 2651 l-225 -6 -76 -37 c-156 -78 -228 -210 -228 -420 l0 -98
175 0 174 0 3 -847 3 -848 27 -57 c65 -140 214 -231 368 -224 l35 1 3 1273 c2
1207 1 1272 -15 1270 -10 -1 -120 -4 -244 -7z"/>
<path d="M1470 2601 c-141 -50 -221 -234 -155 -360 47 -91 123 -141 226 -149
157 -11 279 106 279 267 0 178 -180 302 -350 242z"/>
<path d="M4598 2093 c-14 -9 -36 -33 -47 -54 -21 -36 -21 -48 -21 -620 0 -561
1 -585 20 -616 27 -44 64 -66 113 -66 60 0 101 25 126 76 21 42 21 55 21 610
0 621 1 609 -59 660 -39 32 -110 37 -153 10z"/>
<path d="M2655 1965 c-207 -45 -378 -178 -469 -367 -72 -148 -78 -189 -80
-523 -1 -272 0 -295 22 -374 69 -260 224 -421 482 -503 64 -20 96 -23 215 -23
118 0 152 4 215 24 124 38 206 87 296 176 67 66 90 97 128 175 67 135 75 196
76 528 0 320 -8 378 -76 521 -38 82 -57 107 -133 182 -101 100 -204 157 -329
184 -88 18 -264 19 -347 0z m262 -420 c70 -21 133 -79 169 -157 l29 -63 0
-250 c0 -235 -1 -253 -22 -305 -49 -121 -136 -181 -265 -182 -126 -1 -219 56
-270 167 -22 47 -23 64 -26 301 -3 229 -1 256 16 307 34 95 88 150 181 183 49
18 127 17 188 -1z"/>
<path d="M1357 1743 c-12 -170 -8 -1263 4 -1328 14 -78 47 -141 101 -191 80
-75 145 -102 255 -106 l78 -3 0 655 c0 606 -1 659 -18 715 -56 184 -200 317
-378 350 l-36 7 -6 -99z"/>
</g>
</svg>
