<?xml version="1.0" encoding="UTF-8"?>
<svg version="1.1" xmlns="http://www.w3.org/2000/svg" width="1024" height="585">
<path d="M0 0 C0.33 0.66 0.66 1.32 1 2 C0.04718241 4.43053147 -0.97241785 6.74124764 -2.09375 9.09375 C-2.43198288 9.82020721 -2.77021576 10.54666443 -3.11869812 11.2951355 C-3.85378728 12.87250847 -4.59231565 14.44828214 -5.33383179 16.02264404 C-7.3087384 20.21804793 -9.25649579 24.42603704 -11.20703125 28.6328125 C-11.80732903 29.9251329 -11.80732903 29.9251329 -12.41975403 31.24356079 C-16.43910349 39.9115628 -20.33277356 48.6327826 -24.1875 57.375 C-24.49042969 58.05876709 -24.79335938 58.74253418 -25.10546875 59.44702148 C-30.93320409 72.60555164 -36.66515364 85.76255861 -40.625 99.625 C-41.06428833 101.15169312 -41.06428833 101.15169312 -41.51245117 102.70922852 C-49.90553531 132.64603318 -51.19063389 162.8421987 -51.04459953 193.7573719 C-51.02689699 197.63296514 -51.01681355 201.50851547 -51.00868225 205.38414001 C-50.98485159 216.38805178 -50.94877885 227.39190607 -50.90405273 238.39575195 C-50.87661534 245.16858345 -50.86016034 251.94138453 -50.84918404 258.71426201 C-50.84303903 261.26916143 -50.83311749 263.82405503 -50.81910515 266.37892342 C-50.60629428 305.50095457 -55.57757046 341.83710636 -84 371 C-84.825 371.86625 -85.65 372.7325 -86.5 373.625 C-87.325 374.40875 -88.15 375.1925 -89 376 C-89.57363281 376.56847656 -90.14726563 377.13695312 -90.73828125 377.72265625 C-109.53878671 395.53179796 -135.30025108 405.12170249 -161 406 C-161.75410156 406.03996094 -162.50820313 406.07992188 -163.28515625 406.12109375 C-187.76023512 406.8347753 -209.69586588 399.95740789 -230.875 388.25 C-231.90173828 387.68502808 -231.90173828 387.68502808 -232.94921875 387.10864258 C-236.12642675 385.2980061 -237.93891594 384.0916261 -240 381 C-233.85141632 375.80861341 -227.66188939 370.6937924 -221.3125 365.75 C-215.0084951 360.8408365 -208.83346221 355.78467202 -202.68481445 350.68261719 C-202.00249756 350.11704102 -201.32018066 349.55146484 -200.6171875 348.96875 C-200.01503418 348.46794922 -199.41288086 347.96714844 -198.79248047 347.45117188 C-198.20096191 346.97228516 -197.60944336 346.49339844 -197 346 C-196.32855957 345.43990234 -195.65711914 344.87980469 -194.96533203 344.30273438 C-192.46863499 342.64778091 -190.94518628 342.99697108 -188.078125 343.5390625 C-186.6287195 343.86054718 -185.18090209 344.18923986 -183.734375 344.5234375 C-167.05418224 348.05390775 -149.78090018 347.03936271 -135 338 C-122.17789746 329.65671535 -114.86961075 317.54559042 -111 303 C-110.00837046 297.38736078 -109.86333405 291.97697638 -109.88647461 286.30102539 C-109.88625557 284.8803476 -109.88625557 284.8803476 -109.8860321 283.43096924 C-109.8867253 280.31984111 -109.89448985 277.20877385 -109.90234375 274.09765625 C-109.90421004 271.93289726 -109.90563295 269.76813786 -109.90663147 267.6033783 C-109.91044006 261.92018456 -109.92025615 256.2370166 -109.93133545 250.55383301 C-109.94158527 244.74878284 -109.94613673 238.94372849 -109.95117188 233.13867188 C-109.96187994 221.7591033 -109.97893639 210.37955379 -110 199 C-111.42036119 200.55771771 -112.83774117 202.11815401 -114.25390625 203.6796875 C-115.0435376 204.54835449 -115.83316895 205.41702148 -116.64672852 206.31201172 C-119.47698739 209.54483154 -122.05373073 212.91739092 -124.58984375 216.3828125 C-125.05519531 216.91648437 -125.52054688 217.45015625 -126 218 C-126.66 218 -127.32 218 -128 218 C-128.24363281 218.56203125 -128.48726562 219.1240625 -128.73828125 219.703125 C-130.24180936 222.44019785 -132.06699748 224.45795941 -134.1875 226.75 C-134.99574219 227.63171875 -135.80398438 228.5134375 -136.63671875 229.421875 C-137.41660156 230.27265625 -138.19648437 231.1234375 -139 232 C-140.17161061 233.32899114 -141.33873392 234.6619604 -142.5 236 C-145.08653312 238.97391711 -147.72194125 241.89780743 -150.375 244.8125 C-153.46636801 248.23229328 -156.42459032 251.71958524 -159.3125 255.3125 C-163.72138108 260.76376101 -168.4352398 265.87713498 -173.21484375 271 C-175.97666341 273.9621924 -178.65302434 276.9902134 -181.30078125 280.0546875 C-183.29406428 282.3366529 -185.33493027 284.57228574 -187.375 286.8125 C-190.44746773 290.21083552 -193.38442622 293.67590523 -196.25 297.25 C-200.3495192 302.32423006 -204.73370862 307.0623033 -209.20214844 311.80761719 C-212.44518831 315.27026747 -215.53414875 318.79268593 -218.5 322.5 C-223.05876051 328.19424514 -228.01286386 333.46955246 -233 338.78515625 C-235.80517254 341.77774333 -238.51614046 344.8396056 -241.1953125 347.9453125 C-243.58781774 350.66924703 -246.04405942 353.33343269 -248.5 356 C-252.0927106 359.90165716 -255.6317893 363.84016617 -259.1015625 367.8515625 C-262.12780606 371.27632373 -265.24074517 374.62232091 -268.35742188 377.96484375 C-270.98217364 380.76290569 -270.98217364 380.76290569 -273 384 C-273.66 384 -274.32 384 -275 384 C-275.26425781 384.59296875 -275.52851562 385.1859375 -275.80078125 385.796875 C-277.04370425 388.08029054 -278.30401646 389.47426723 -280.1875 391.25 C-283.31131455 394.28382812 -286.18767708 397.44325811 -289.02734375 400.7421875 C-292.26821658 404.45154294 -295.62221092 408.05853087 -298.9609375 411.6796875 C-301.01577328 413.81946882 -301.01577328 413.81946882 -302 416 C-302.66 416 -303.32 416 -304 416 C-304.38285156 416.87398438 -304.38285156 416.87398438 -304.7734375 417.765625 C-306.11741087 420.21388223 -307.61810296 421.81743248 -309.625 423.75 C-310.25664063 424.36359375 -310.88828125 424.9771875 -311.5390625 425.609375 C-312.02117188 426.06828125 -312.50328125 426.5271875 -313 427 C-313.33 426.34 -313.66 425.68 -314 425 C-312.81905173 422.70336638 -311.57774957 420.52306899 -310.25 418.3125 C-293.2787156 389.08323834 -279.68438639 358.67010652 -279.71289062 324.46777344 C-279.70684767 322.96783585 -279.69991879 321.46790162 -279.69218445 319.9679718 C-279.67742821 316.76683325 -279.66857991 313.56575561 -279.66447449 310.36458588 C-279.65768447 305.28411321 -279.63584158 300.20376903 -279.61193848 295.12335205 C-279.56322925 284.33226507 -279.53076317 273.54115081 -279.5 262.75 C-279.46678038 251.10806236 -279.43056319 239.46617589 -279.37586927 227.82431626 C-279.35652816 223.60973419 -279.3411762 219.39521979 -279.33552551 215.1805954 C-279.27627407 172.5669159 -279.27627407 172.5669159 -274.375 156.375 C-274.11775146 155.50311035 -273.86050293 154.6312207 -273.59545898 153.73291016 C-270.99065307 145.31098669 -267.35845763 137.64105167 -263 130 C-262.45730469 129.01902344 -261.91460938 128.03804687 -261.35546875 127.02734375 C-247.94057204 104.34278605 -223.95641802 85.56817547 -198.453125 78.71484375 C-178.03897384 73.63256389 -156.50270795 72.96731822 -136 78 C-134.38931641 78.38285156 -134.38931641 78.38285156 -132.74609375 78.7734375 C-121.05900319 81.96215558 -109.24959611 87.53200891 -99 94 C-100.45298704 97.52426645 -102.22774917 99.2183007 -105.25 101.5 C-109.46171855 104.76573885 -113.5366131 108.13639392 -117.5625 111.625 C-124.9855939 118.03594781 -132.53327852 124.295735 -140.15795898 130.46557617 C-141.34851103 131.4573084 -142.5124698 132.48227518 -143.64086914 133.54418945 C-147.35416979 136.98777905 -147.35416979 136.98777905 -150.68359375 137.05078125 C-151.59238281 136.80714844 -152.50117187 136.56351563 -153.4375 136.3125 C-169.62150983 132.85164252 -184.34784044 135.36121273 -198.37890625 144.15625 C-209.5274863 151.99847024 -216.02184163 164.01403434 -218.58343124 177.26047897 C-219.24643428 181.62064939 -219.26225794 185.91256696 -219.22705078 190.31494141 C-219.22734283 191.29175873 -219.22763489 192.26857605 -219.22793579 193.2749939 C-219.22655507 196.46727741 -219.21105366 199.65932033 -219.1953125 202.8515625 C-219.19157789 205.07929354 -219.18873304 207.30702624 -219.18673706 209.53475952 C-219.17913588 215.37083548 -219.15951783 221.20681038 -219.1373291 227.04284668 C-219.11679465 233.0090193 -219.10771915 238.9752084 -219.09765625 244.94140625 C-219.07626842 256.62764833 -219.04217527 268.31381573 -219 280 C-218.33178223 279.13117188 -217.66356445 278.26234375 -216.97509766 277.3671875 C-216.07975425 276.20312373 -215.18440911 275.0390613 -214.2890625 273.875 C-213.85086182 273.30523437 -213.41266113 272.73546875 -212.96118164 272.1484375 C-210.10143558 268.43050356 -207.23911006 264.71457319 -204.375 261 C-199.89524808 255.18298445 -195.44749571 249.341695 -191 243.5 C-182.83945447 232.78366362 -174.65713509 222.08996126 -166.31738281 211.51220703 C-160.98109734 204.72888823 -155.75761298 197.85961726 -150.52392578 190.99707031 C-144.44068475 183.02512036 -138.3041425 175.09785515 -132.09838867 167.22094727 C-128.69398388 162.89539979 -125.32857823 158.54122595 -121.97827148 154.17358398 C-111.98037779 141.14921652 -101.84457334 128.23162176 -91.68652344 115.33203125 C-90.35309555 113.63835083 -89.02013619 111.94430341 -87.6875 110.25 C-87.24051758 109.68176514 -86.79353516 109.11353027 -86.33300781 108.52807617 C-81.95338021 102.95337425 -77.61192599 97.34919711 -73.2668457 91.74755859 C-69.03620317 86.30444409 -64.73664997 80.921237 -60.4074707 75.55639648 C-56.7445818 70.99200512 -53.23330051 66.32734602 -49.75 61.625 C-46.02940071 56.60611615 -42.19980043 51.84214965 -37.96875 47.23828125 C-35.18416996 44.07247894 -32.67332586 40.71339363 -30.12792969 37.35424805 C-26.00622425 31.94509029 -21.68356879 26.712335 -17.34472656 21.47680664 C-11.47520537 14.3875507 -5.72633325 7.20511161 0 0 Z " fill="#000000" transform="translate(944,54)"/>
<path d="M0 0 C8.28079749 5.85524106 13.60609911 13.38873615 16.14453125 23.36328125 C17.43234893 32.76734526 15.49636364 41.47827425 10.30859375 49.3984375 C4.30990123 57.12752209 -2.72419311 61.71530481 -12.01953125 64.50390625 C-23.10449776 65.6124029 -32.51564828 63.56221149 -41.51953125 56.75390625 C-49.83153548 49.19753877 -53.43329406 41.35756656 -55.01953125 30.25390625 C-53.31350531 18.31172468 -49.21466258 9.38029325 -39.9765625 1.58984375 C-28.62890453 -6.88932834 -12.08257829 -7.18288447 0 0 Z " fill="#000000" transform="translate(358.51953125,142.24609375)"/>
<path d="M0 0 C2.48484924 0.07035192 4.96989131 0.1342079 7.45507812 0.19140625 C13.49514925 0.34441319 19.52790771 0.57753197 25.5625 0.875 C25.5853653 35.50916933 25.60299768 70.14333695 25.61356533 104.77751219 C25.61481611 108.86201009 25.61611042 112.94650798 25.61743164 117.03100586 C25.61769395 117.84419077 25.61795626 118.65737567 25.61822652 119.49520255 C25.62258343 132.67977673 25.6304711 145.86434658 25.6396528 159.04891818 C25.64898875 172.56726108 25.65455549 186.0856017 25.65658849 199.6039477 C25.65796384 207.95231829 25.66231508 216.30067663 25.67041647 224.64904345 C25.67568321 230.36592429 25.67730446 236.08279874 25.67600138 241.79968183 C25.67535788 245.10302503 25.67691521 248.40634204 25.68170547 251.70968246 C25.68663533 255.28266372 25.68550092 258.85559127 25.68275452 262.42857361 C25.68566736 263.4839987 25.6885802 264.5394238 25.69158131 265.62683147 C25.68959026 266.57630612 25.68759921 267.52578076 25.68554783 268.50402737 C25.68592755 269.32991908 25.68630727 270.1558108 25.6866985 271.00672954 C25.5625 272.875 25.5625 272.875 24.5625 273.875 C22.75740627 273.97399561 20.94843072 274.00299151 19.140625 274.00439453 C17.40377441 274.00912277 17.40377441 274.00912277 15.63183594 274.01394653 C14.37145508 274.0119223 13.11107422 274.00989807 11.8125 274.0078125 C10.52891602 274.00876923 9.24533203 274.00972595 7.92285156 274.01071167 C5.20246176 274.01218831 2.48210475 274.01003519 -0.23828125 274.00537109 C-3.73234669 273.99967381 -7.22633533 274.00295299 -10.72039795 274.00894356 C-14.04277153 274.01341754 -17.36512423 274.01028885 -20.6875 274.0078125 C-21.94788086 274.00983673 -23.20826172 274.01186096 -24.50683594 274.01394653 C-25.66473633 274.01079437 -26.82263672 274.00764221 -28.015625 274.00439453 C-29.04075195 274.00359894 -30.06587891 274.00280334 -31.12207031 274.00198364 C-33.4375 273.875 -33.4375 273.875 -34.4375 272.875 C-34.54758095 270.42169185 -34.59245835 267.99592606 -34.59571838 265.54161072 C-34.60312535 264.37651666 -34.60312535 264.37651666 -34.61068195 263.18788534 C-34.62613355 260.56528196 -34.63443817 257.94270319 -34.64282227 255.32006836 C-34.65239478 253.44802125 -34.66240448 251.57597632 -34.67282104 249.70393372 C-34.69994411 244.60499595 -34.72091347 239.50604886 -34.74082303 234.4070785 C-34.76263709 229.08456504 -34.79004811 223.76208056 -34.81687927 218.43959045 C-34.86686829 208.3531721 -34.911784 198.26673771 -34.95490164 188.1802879 C-35.00422107 176.70041563 -35.05915877 165.22057243 -35.11458123 153.74072826 C-35.22849655 130.11884595 -35.33531469 106.49693576 -35.4375 82.875 C-36.43910156 83.51308594 -37.44070312 84.15117187 -38.47265625 84.80859375 C-39.81471217 85.64385933 -41.15718232 86.47845961 -42.5 87.3125 C-43.15677734 87.73337891 -43.81355469 88.15425781 -44.49023438 88.58789062 C-48.82341432 91.25610487 -52.25918388 92.50350729 -57.4375 92.875 C-58.33364014 92.94275635 -59.22978027 93.0105127 -60.15307617 93.08032227 C-61.00361572 93.11697998 -61.85415527 93.1536377 -62.73046875 93.19140625 C-63.69146484 93.23330078 -64.65246094 93.27519531 -65.64257812 93.31835938 C-66.62677734 93.35767578 -67.61097656 93.39699219 -68.625 93.4375 C-70.07229492 93.50227539 -70.07229492 93.50227539 -71.54882812 93.56835938 C-78.51474336 93.8607329 -85.4660065 93.92352548 -92.4375 93.875 C-92.7112573 88.62843176 -92.90981104 83.38608554 -93.04174805 78.1340332 C-93.09677462 76.35172073 -93.17163149 74.56989831 -93.26733398 72.78930664 C-94.03994495 58.03532934 -94.03994495 58.03532934 -90.17944336 52.83081055 C-87.37816939 50.53185707 -84.57147447 48.68621222 -81.4375 46.875 C-80.20459919 45.94401558 -78.98618482 44.99305039 -77.79296875 44.01171875 C-76.73723914 43.19497634 -75.68125111 42.37856787 -74.625 41.5625 C-69.10568264 37.26330685 -63.76068841 32.79372339 -58.47509766 28.21118164 C-54.21944983 24.52434621 -49.88353016 20.96405087 -45.43701172 17.5078125 C-43.13610293 15.48819664 -41.45542404 13.74247913 -39.57763672 11.39160156 C-28.38764724 -1.89805866 -16.36470446 -0.80956135 0 0 Z " fill="#000000" transform="translate(233.4375,155.125)"/>
<path d="M0 0 C13.5811987 13.06441032 22.34812263 28.81863134 28.25390625 46.53125 C28.57359375 47.48902344 28.89328125 48.44679688 29.22265625 49.43359375 C38.09501361 78.93418197 33.46172113 112.19844324 19.21484375 139.16796875 C4.46853407 164.45994611 -17.96110914 182.42282595 -46.05859375 190.96875 C-78.00713945 199.02950059 -109.28778677 194.20744081 -137.65917969 177.80126953 C-142.49092427 174.86084659 -146.6477036 171.40942814 -150.74609375 167.53125 C-151.27428711 167.0372168 -151.80248047 166.54318359 -152.34667969 166.03417969 C-159.34317619 159.44664745 -165.80429582 152.83669593 -170.74609375 144.53125 C-171.09623535 143.95487793 -171.44637695 143.37850586 -171.80712891 142.78466797 C-187.88295357 115.94139705 -191.489809 83.8599373 -184.74609375 53.53125 C-180.5483907 37.17148154 -173.51298199 22.61183503 -162.74609375 9.53125 C-162.03582031 8.66757813 -161.32554687 7.80390625 -160.59375 6.9140625 C-141.20848868 -15.59106909 -114.63890095 -27.68651249 -85.39453125 -30.21875 C-53.19600651 -32.34622559 -23.79474887 -21.39158078 0 0 Z M-116.15625 41.60546875 C-128.409893 56.44833361 -129.93303992 75.06404934 -128.74609375 93.53125 C-126.92862378 108.13602498 -120.5515738 120.55021405 -109.74609375 130.53125 C-97.45573959 140.05627447 -82.82395279 142.04499815 -67.74609375 140.53125 C-54.72184917 138.21917297 -43.36487477 131.40371763 -35.74609375 120.53125 C-25.34893253 103.23054109 -22.53671984 83.06738574 -27.37109375 63.40625 C-32.1738483 48.24755596 -39.46617277 37.28284677 -53.8125 29.78515625 C-61.73158081 26.4003028 -68.40556402 25.00286134 -77.05859375 25.09375 C-78.58262817 25.10619751 -78.58262817 25.10619751 -80.13745117 25.11889648 C-94.82863996 25.4497632 -106.05521466 30.88648771 -116.15625 41.60546875 Z " fill="#000000" transform="translate(595.74609375,229.46875)"/>
<path d="M0 0 C19.47 0 38.94 0 59 0 C59.02254471 23.97335042 59.04097782 47.9466923 59.05181217 71.92005062 C59.05697571 83.05046403 59.06401952 94.1808704 59.07543945 105.3112793 C59.08538451 115.00880216 59.091853 124.70631993 59.09408849 134.40384775 C59.0953959 139.54197829 59.09848366 144.68009426 59.10573006 149.81822014 C59.11248747 154.64849446 59.11461753 159.47874812 59.11310768 164.30902672 C59.11338414 166.08725853 59.1153909 167.86549098 59.11920547 169.64371872 C59.12413838 172.06063636 59.1229998 174.47747467 59.12025452 176.89439392 C59.12316736 177.60741557 59.1260802 178.32043721 59.12908131 179.05506557 C59.11412121 183.88587879 59.11412121 183.88587879 58 185 C38.86 185 19.72 185 0 185 C0 123.95 0 62.9 0 0 Z " fill="#000000" transform="translate(311,244)"/>
</svg>
